<svg width="298" height="298" xmlns="http://www.w3.org/2000/svg">

 <g>
  <title>Layer 1</title>
  <path id="svg_1" fill="#FFFFFF" d="m341.357,203.687zm-193.047,-155.687c55.399,0 100.31,44.91 100.31,100.31c0,55.399 -44.911,100.31 -100.31,100.31c-55.4,0 -100.31,-44.912 -100.31,-100.31c0,-55.4 44.91,-100.31 100.31,-100.31zm71.134,72.934a8.957,8.957 0 0 0 -12.665,0.2l-83.514,86.194a8.956,8.956 0 0 0 0.201,12.664a8.92,8.92 0 0 0 6.231,2.525c2.34,0 4.677,-0.912 6.433,-2.724l83.513,-86.195a8.955,8.955 0 0 0 -0.2,-12.664l0.001,0zm-46.955,82.775a8.957,8.957 0 1 0 0.001,17.913a8.957,8.957 0 0 0 -0.001,-17.913zm-39.996,-35.316a8.957,8.957 0 0 0 -12.665,0.201l-22.768,23.5c-3.442,3.55 -3.352,9.221 0.2,12.663a8.924,8.924 0 0 0 6.232,2.524a8.93,8.93 0 0 0 6.433,-2.724l22.768,-23.499a8.957,8.957 0 0 0 -0.2,-12.665zm86.951,-4.448a8.955,8.955 0 0 0 -12.664,0.2l-10.78,11.124a8.956,8.956 0 0 0 0.2,12.664a8.926,8.926 0 0 0 6.232,2.524c2.34,0 4.677,-0.91 6.433,-2.724l10.778,-11.124a8.956,8.956 0 0 0 -0.2,-12.664l0.001,0zm-132.55,-0.356a8.955,8.955 0 0 0 -8.955,8.956a8.957,8.957 0 1 0 8.956,-8.956l-0.001,0zm116.114,-67.827a8.93,8.93 0 0 0 -12.626,0.2l-47.747,49.28a8.929,8.929 0 1 0 12.825,12.425l47.747,-49.28a8.928,8.928 0 0 0 -0.2,-12.625l0.001,0zm-26.7,-15.543a8.956,8.956 0 0 0 -12.665,0.2l-60.455,62.397a8.956,8.956 0 0 0 0.2,12.664a8.926,8.926 0 0 0 6.231,2.524c2.34,0 4.677,-0.911 6.434,-2.724l60.454,-62.395a8.958,8.958 0 0 0 -0.2,-12.665l0.001,-0.001zm-61.98,20.182a8.957,8.957 0 0 0 -12.665,0.2l-22.768,23.499a8.956,8.956 0 0 0 6.432,15.188c2.34,0 4.676,-0.912 6.433,-2.724l22.768,-23.499a8.957,8.957 0 0 0 -0.2,-12.664zm15.108,-24.695a8.957,8.957 0 1 0 0,17.913a8.957,8.957 0 0 0 0,-17.913z"/>
 </g>
</svg>